<svg fill="none" overflow="visible" xmlns="http://www.w3.org/2000/svg"><style>
  @keyframes move-819997929894399730 {0.0% {transform:translate(22%, 34%) rotate(6deg) scaleX(1);}5.0% {transform:translate(30%, 41%) rotate(-2deg) scaleX(1);}10.0% {transform:translate(40%, 31%) rotate(2deg) scaleX(1);}10.01% {transform:translate(45%, 31%) rotate(2deg) scaleX(-1);}14.0% {transform:translate(37%, 29%) rotate(0deg) scaleX(-1);}18.0% {transform:translate(33%, 29%) rotate(0deg) scaleX(-1);}21.0% {transform:translate(25%, 23%) rotate(0deg) scaleX(-1);}23.0% {transform:translate(19%, 32%) rotate(0deg) scaleX(-1);}23.01% {transform:translate(14%, 32%) rotate(0deg) scaleX(1);}28.0% {transform:translate(31%, 27%) rotate(2deg) scaleX(1);}28.01% {transform:translate(36%, 27%) rotate(2deg) scaleX(-1);}31.0% {transform:translate(21%, 27%) rotate(0deg) scaleX(-1);}31.01% {transform:translate(16%, 27%) rotate(0deg) scaleX(1);}35.0% {transform:translate(25%, 23%) rotate(2deg) scaleX(1);}35.01% {transform:translate(30%, 23%) rotate(2deg) scaleX(-1);}37.0% {transform:translate(18%, 30%) rotate(0deg) scaleX(-1);}37.01% {transform:translate(13%, 30%) rotate(0deg) scaleX(1);}42.0% {transform:translate(24%, 38%) rotate(-2deg) scaleX(1);}42.01% {transform:translate(29%, 38%) rotate(-2deg) scaleX(-1);}46.0% {transform:translate(15%, 48%) rotate(0deg) scaleX(-1);}51.0% {transform:translate(11%, 37%) rotate(1deg) scaleX(-1);}51.01% {transform:translate(6%, 37%) rotate(1deg) scaleX(1);}53.0% {transform:translate(14%, 49%) rotate(-1deg) scaleX(1);}56.0% {transform:translate(21%, 62%) rotate(-2deg) scaleX(1);}59.0% {transform:translate(25%, 60%) rotate(2deg) scaleX(1);}59.01% {transform:translate(30%, 60%) rotate(2deg) scaleX(-1);}63.0% {transform:translate(15%, 50%) rotate(0deg) scaleX(-1);}63.01% {transform:translate(10%, 50%) rotate(0deg) scaleX(1);}66.0% {transform:translate(26%, 36%) rotate(2deg) scaleX(1);}68.0% {transform:translate(34%, 47%) rotate(-2deg) scaleX(1);}68.01% {transform:translate(39%, 47%) rotate(-2deg) scaleX(-1);}73.0% {transform:translate(20%, 47%) rotate(0deg) scaleX(-1);}73.01% {transform:translate(15%, 47%) rotate(0deg) scaleX(1);}77.0% {transform:translate(22%, 54%) rotate(-1deg) scaleX(1);}79.0% {transform:translate(23%, 42%) rotate(1deg) scaleX(1);}79.01% {transform:translate(28%, 42%) rotate(1deg) scaleX(-1);}81.0% {transform:translate(22%, 33%) rotate(1deg) scaleX(-1);}81.01% {transform:translate(17%, 33%) rotate(1deg) scaleX(1);}83.0% {transform:translate(34%, 44%) rotate(-2deg) scaleX(1);}87.0% {transform:translate(44%, 58%) rotate(-2deg) scaleX(1);}91.0% {transform:translate(56%, 51%) rotate(2deg) scaleX(1);}91.01% {transform:translate(61%, 51%) rotate(2deg) scaleX(-1);}94.0% {transform:translate(52%, 57%) rotate(0deg) scaleX(-1);}94.01% {transform:translate(47%, 57%) rotate(0deg) scaleX(1);}97.0% {transform:translate(57%, 69%) rotate(-1deg) scaleX(1);}100.0% {transform:translate(65%, 69%) rotate(3deg) scaleX(1);}}#cat-819997929894399730 {animation-name: move-819997929894399730;animation-duration: 180s;animation-iteration-count: 1;animation-fill-mode: forwards;}@keyframes reverse-flip-819997929894399730 {0.0% {transform-origin: 17.5px 0px;transform: scaleX(1);}5.0% {transform-origin: 17.5px 0px;transform: scaleX(1);}10.0% {transform-origin: 17.5px 0px;transform: scaleX(1);}10.01% {transform-origin: 17.5px 0px;transform: scaleX(-1);}14.0% {transform-origin: 17.5px 0px;transform: scaleX(-1);}18.0% {transform-origin: 17.5px 0px;transform: scaleX(-1);}21.0% {transform-origin: 17.5px 0px;transform: scaleX(-1);}23.0% {transform-origin: 17.5px 0px;transform: scaleX(-1);}23.01% {transform-origin: 17.5px 0px;transform: scaleX(1);}28.0% {transform-origin: 17.5px 0px;transform: scaleX(1);}28.01% {transform-origin: 17.5px 0px;transform: scaleX(-1);}31.0% {transform-origin: 17.5px 0px;transform: scaleX(-1);}31.01% {transform-origin: 17.5px 0px;transform: scaleX(1);}35.0% {transform-origin: 17.5px 0px;transform: scaleX(1);}35.01% {transform-origin: 17.5px 0px;transform: scaleX(-1);}37.0% {transform-origin: 17.5px 0px;transform: scaleX(-1);}37.01% {transform-origin: 17.5px 0px;transform: scaleX(1);}42.0% {transform-origin: 17.5px 0px;transform: scaleX(1);}42.01% {transform-origin: 17.5px 0px;transform: scaleX(-1);}46.0% {transform-origin: 17.5px 0px;transform: scaleX(-1);}51.0% {transform-origin: 17.5px 0px;transform: scaleX(-1);}51.01% {transform-origin: 17.5px 0px;transform: scaleX(1);}53.0% {transform-origin: 17.5px 0px;transform: scaleX(1);}56.0% {transform-origin: 17.5px 0px;transform: scaleX(1);}59.0% {transform-origin: 17.5px 0px;transform: scaleX(1);}59.01% {transform-origin: 17.5px 0px;transform: scaleX(-1);}63.0% {transform-origin: 17.5px 0px;transform: scaleX(-1);}63.01% {transform-origin: 17.5px 0px;transform: scaleX(1);}66.0% {transform-origin: 17.5px 0px;transform: scaleX(1);}68.0% {transform-origin: 17.5px 0px;transform: scaleX(1);}68.01% {transform-origin: 17.5px 0px;transform: scaleX(-1);}73.0% {transform-origin: 17.5px 0px;transform: scaleX(-1);}73.01% {transform-origin: 17.5px 0px;transform: scaleX(1);}77.0% {transform-origin: 17.5px 0px;transform: scaleX(1);}79.0% {transform-origin: 17.5px 0px;transform: scaleX(1);}79.01% {transform-origin: 17.5px 0px;transform: scaleX(-1);}81.0% {transform-origin: 17.5px 0px;transform: scaleX(-1);}81.01% {transform-origin: 17.5px 0px;transform: scaleX(1);}83.0% {transform-origin: 17.5px 0px;transform: scaleX(1);}87.0% {transform-origin: 17.5px 0px;transform: scaleX(1);}91.0% {transform-origin: 17.5px 0px;transform: scaleX(1);}91.01% {transform-origin: 17.5px 0px;transform: scaleX(-1);}94.0% {transform-origin: 17.5px 0px;transform: scaleX(-1);}94.01% {transform-origin: 17.5px 0px;transform: scaleX(1);}97.0% {transform-origin: 17.5px 0px;transform: scaleX(1);}100.0% {transform-origin: 17.5px 0px;transform: scaleX(1);}}#contributions-wrap-819997929894399730, #level-tag-wrap-819997929894399730, #level-wrap-819997929894399730, #username-tag-wrap-819997929894399730, #username-wrap-819997929894399730 {animation-name: reverse-flip-819997929894399730;animation-duration: 180s;animation-iteration-count: 1;animation-fill-mode: forwards;}

  @keyframes cat-819997929894399730-head-move {
  0% {
  transform: translate(0px, -10px);
  }
  50% {
  transform: translate(-0.5px, -10px);
  }
  100% {
  transform: translate(0px, -10px);
  }
  }

  @keyframes cat-819997929894399730-eyelid-left-move {
  0% {
  height: 1px;
  }
  10% {
  height: 3px;
  }
  20% {
  height: 1px;
  }
  100% {
  height: 1px;
  }
  }

  @keyframes cat-819997929894399730-eyelid-right-move {
  0% {
  height: 1px;
  }
  10% {
  height: 3px;
  }
  20% {
  height: 1px;
  }
  100% {
  height: 1px;
  }
  }

  @keyframes cat-819997929894399730-leg-left-move {
  0% {
  transform: translate(4px, 6px);
  }
  50% {
  transform: translate(4px, 7px);
  }
  100% {
  transform: translate(4px, 6px);
  }
  }

  @keyframes cat-819997929894399730-leg-right-move {
  0% {
  transform: translate(8px, 6px);
  }
  50% {
  transform: translate(8px, 7px);
  }
  100% {
  transform: translate(8px, 6px);
  }
  }

  #cat-819997929894399730-head {
  animation-name: cat-819997929894399730-head-move;
  animation-duration: 1s;
  animation-iteration-count: infinite;
  animation-timing-function: ease-in-out;
  }

  #cat-819997929894399730-eyelid-left {
  animation-name: cat-819997929894399730-eyelid-left-move;
  animation-duration: 3s;
  animation-iteration-count: infinite;
  animation-timing-function: ease-in-out;
  }

  #cat-819997929894399730-eyelid-right {
  animation-name: cat-819997929894399730-eyelid-right-move;
  animation-duration: 3s;
  animation-iteration-count: infinite;
  animation-timing-function: ease-in-out;
  }

  #cat-819997929894399730-leg-left {
  animation-name:cat-819997929894399730-leg-left-move;
  animation-duration: 1s;
  animation-iteration-count:infinite;
  animation-timing-function: ease-in-out;
  }

  #cat-819997929894399730-leg-right {
  animation-name:cat-819997929894399730-leg-right-move;
  animation-duration:1s;
  animation-delay: 0.5s;
  animation-iteration-count:infinite;
  animation-timing-function: ease-in-out;
  }

</style>
<g id="cat-819997929894399730" transform="translate(100, 100)">
<g id="id"> 819997929894399730 </g>
<g id="contributions-wrap-819997929894399730">
  <g id="contributions" transform="translate(-20, -61)"
    style="display:default;">
    <g id="contribution-tag" transform="translate(-3, -1)">
      <rect x="3" width="77" height="19" fill="white"/>
      <rect x="1" y="1.26669" width="81" height="16.4667" fill="white"/>
      <rect y="2.53333" width="83" height="13.9333" fill="white"/>
    </g>
    <path
      d="M1 2.75H4V3.5H4.75V4.25H3.25V3.5H1.75V7.25H3.25V6.5H4.75V7.25H4V8H1V7.25H0.25V3.5H1V2.75ZM7 2.75H10V3.5H10.75V7.25H10V8H7V7.25H6.25V3.5H7V2.75ZM9.25 7.25V3.5H7.75V7.25H9.25ZM16 3.5H16.75V8H15.25V3.5H13.75V8H12.25V2.75H16V3.5ZM19 1.25H20.5V2.75H22.75V3.5H20.5V7.25H22.75V8H19.75V7.25H19V3.5H18.25V2.75H19V1.25ZM24.25 2.75H25.75V4.25H26.5V5H25.75V8H24.25V2.75ZM28.75 2.75V4.25H26.5V3.5H27.25V2.75H28.75ZM33.25 2H31.75V0.5H33.25V2ZM33.25 7.25H34.75V8H30.25V7.25H31.75V3.5H30.25V2.75H33.25V7.25ZM40 3.5H40.75V7.25H40V8H36.25V1.25H37.75V2.75H40V3.5ZM39.25 7.25V3.5H37.75V7.25H39.25ZM45.25 2.75H46.75V8H43V7.25H42.25V2.75H43.75V7.25H45.25V2.75ZM49 1.25H50.5V2.75H52.75V3.5H50.5V7.25H52.75V8H49.75V7.25H49V3.5H48.25V2.75H49V1.25ZM57.25 2H55.75V0.5H57.25V2ZM57.25 7.25H58.75V8H54.25V7.25H55.75V3.5H54.25V2.75H57.25V7.25ZM61 2.75H64V3.5H64.75V7.25H64V8H61V7.25H60.25V3.5H61V2.75ZM63.25 7.25V3.5H61.75V7.25H63.25ZM70 3.5H70.75V8H69.25V3.5H67.75V8H66.25V2.75H70V3.5ZM73 5H72.25V3.5H73V2.75H76.75V3.5H73.75V5H76V5.75H76.75V7.25H76V8H72.25V7.25H75.25V5.75H73V5Z"
      fill="black"/>
    <svg width="600" height="300" viewBox="0 0 200 100" fill="none" overflow="visible"
      xmlns="http://www.w3.org/2000/svg">
      <g id="contribution" transform="translate(8.8, 3.5)">
        <g id="level0" transform="translate(0.0, -1.0)"><path d="M1 2.5H1.25V2H0.25V0.75H1.75V1H0.75V1.75H1.5V2H1.75V2.5H1.5V2.75H1.25V3H0.25V2.75H1V2.5Z" fill="black"/>
</g><g id="level1" transform="translate(2.0, -1.0)"><path d="M0.75 2.5H1V2.25H0.5V2H0.25V1H0.5V0.75H1.5V1H1.75V2.25H1.5V2.5H1.25V3H0.5V2.75H0.75V2.5ZM1.25 2V1H0.75V2H1.25Z" fill="black"/>
</g><g id="level2" transform="translate(4.0, -1.0)"><path d="M0.5 0.75H1.5V1H1.75V2.75H1.5V3H0.5V2.75H0.25V1H0.5V0.75ZM1 2V2.5H0.75V2.75H1.25V1.75H1V1.25H1.25V1H0.75V2H1Z" fill="black"/>
</g><g id="level3" transform="translate(6.0, -1.0)"><path d="M0.5 1.25H0.75V0.75H1.5V1H1.25V1.25H1V1.5H1.5V1.75H1.75V2.75H1.5V3H0.5V2.75H0.25V1.5H0.5V1.25ZM1.25 2.75V1.75H0.75V2.75H1.25Z" fill="black"/>
</g>
      </g>
    </svg>
  </g>
</g>

<g id="username-tag-wrap-819997929894399730">
  <g id="username-tag" transform="translate(-20, -49.5)" style="display:none;">
    <rect x="3" width="77" height="9" fill="white"/>
    <rect x="1" y="0.600006" width="81" height="7.8" fill="white"/>
    <rect y="1.20001" width="83" height="6.6" fill="white"/>
  </g>
</g>

<g id="username-wrap-819997929894399730">
  <g id="username" transform="translate(-9, -49)" style="display:none;">
    <svg width="600" height="300" viewBox="0 0 2400 1200" fill="none" overflow="visible"
      xmlns="http://www.w3.org/2000/svg">
      <g id="level0" transform="translate(14.0, -1.0)"><g transform="translate(0, 7)">
<path d="M13.25 3.5H3.5V0.25H16.5V3.5H19.75V23H3.5V19.75H0.25V13.25H3.5V10H13.25V3.5ZM13.25 19.75V13.25H6.75V19.75H13.25Z" fill="black"/>
</g>
</g><g id="level1" transform="translate(39.0, -1.0)"><g transform="translate(0, 7)">
<path d="M0.25 0.25H6.75V6.75H10V10H6.75V23H0.25V0.25ZM19.75 0.25V6.75H10V3.5H13.25V0.25H19.75Z" fill="black"/>
</g>
</g><g id="level2" transform="translate(64.0, -1.0)"><g transform="translate(0, 7)">
<path d="M3.5 0.25H16.5V3.5H19.75V6.75H13.25V3.5H6.75V19.75H13.25V16.5H19.75V19.75H16.5V23H3.5V19.75H0.25V3.5H3.5V0.25Z" fill="black"/>
</g>
</g><g id="level3" transform="translate(89.0, -1.0)"><g transform="translate(0, 7)">
<path d="M3.5 13.25H6.75V10H3.5V6.75H0.25V0.25H6.75V6.75H13.25V0.25H19.75V6.75H16.5V10H13.25V13.25H16.5V16.5H19.75V23H13.25V16.5H6.75V23H0.25V16.5H3.5V13.25Z" fill="black"/>
</g>
</g><g id="level4" transform="translate(114.0, -1.0)"><svg width="20" height="30" viewBox="0 0 20 30" fill="none" xmlns="http://www.w3.org/2000/svg">
<path d="M3.5 0.75H10V7.25H19.75V10.5H10V26.75H19.75V30H6.75V26.75H3.5V10.5H0.25V7.25H3.5V0.75Z" fill="black"/>
</svg>
</g><g id="level5" transform="translate(139.0, -1.0)"><g transform="translate(0, 7)">
<path d="M0.25 3.5H3.5V0.25H16.5V3.5H19.75V13.25H6.75V19.75H16.5V23H3.5V19.75H0.25V3.5ZM13.25 10V3.5H6.75V10H13.25Z" fill="black"/>
</g>
</g><g id="level6" transform="translate(164.0, -1.0)"><g transform="translate(0, 7)">
<path d="M13.25 3.5H3.5V0.25H16.5V3.5H19.75V23H3.5V19.75H0.25V13.25H3.5V10H13.25V3.5ZM13.25 19.75V13.25H6.75V19.75H13.25Z" fill="black"/>
</g>
</g><g id="level7" transform="translate(189.0, -1.0)"><g transform="translate(0, 7)">
<path d="M6.75 23H0.25V0.25H19.75V3.5H23V23H16.5V3.5H13.25V19.75H10V3.5H6.75V23Z" fill="black"/>
</g>
</g>
    </svg>
  </g>
</g>

<g id="level-tag-wrap-819997929894399730">
  <g id="level-tag" transform="translate(-23, -41)" style="display:default;">
    <rect x="3" width="77" height="9" fill="white"/>
    <rect x="1" y="0.600006" width="81" height="7.8" fill="white"/>
    <rect y="1.20001" width="83" height="6.6" fill="white"/>
  </g>
</g>

<g id="level-wrap-819997929894399730" style="display:default;">
  <rect width="27.5" height="1" fill="none"/>
  <svg width="600" height="300" viewBox="0 0 200 100" fill="none" overflow="visible">
    <g id="level" transform="translate(-7, -13)">
      <g transform="translate(10, -0.05)">
        <path
          d="M0.21875 0.03125H0.65625V1.78125H1.53125V2H0.21875V0.03125ZM2.1875 1.5625H1.96875V0.46875H2.40625V1.5625H2.84375V0.46875H3.28125V1.5625H3.0625V1.78125H2.84375V2H2.40625V1.78125H2.1875V1.5625Z"
          fill="black"/>
      </g>
      <g id="level0" transform="translate(14.0, -1.0)"><path d="M0.5 0.75H1.5V1H1.75V2.75H1.5V3H0.5V2.75H0.25V1H0.5V0.75ZM1 2V2.5H0.75V2.75H1.25V1.75H1V1.25H1.25V1H0.75V2H1Z" fill="black"/>
</g>
    </g>
  </svg>
</g>

<svg width="600" height="300" viewBox="0 0 200 100" fill="none" overflow="visible">

  <g id="cat-819997929894399730-shadow" transform="translate(1, 10)">
    <rect y="0.75" width="11" height="1.5" fill="#2B4447" fill-opacity="0.1"/>
    <rect x="0.846146" y="0.375" width="9.30769" height="0.375" fill="#2B4447" fill-opacity="0.1"/>
    <rect x="0.846146" y="2.25" width="9.30769" height="0.375" fill="#2B4447" fill-opacity="0.1"/>
    <rect x="1.69228" width="7.61539" height="0.375" fill="#2B4447" fill-opacity="0.1"/>
    <rect x="1.69228" y="2.625" width="7.61539" height="0.375" fill="#2B4447" fill-opacity="0.1"/>
  </g>

  <g id="cat-819997929894399730-leg-left" transform="translate(4, 6)">
    <rect width="2" height="5" transform="matrix(-1 0 0 1 2 0)" fill="#FFA917"/>
    <rect width="1" height="5" transform="matrix(-1 0 0 1 1 0)" fill="black" fill-opacity="0.1"/>
  </g>
  <g id="cat-819997929894399730-leg-right" transform="translate(8, 6)">
    <rect width="2" height="5" transform="matrix(-1 0 0 1 2 0)" fill="#FFA917"/>
    <rect width="1" height="5" transform="matrix(-1 0 0 1 1 0)" fill="black" fill-opacity="0.1"/>
  </g>
  <g id="cat-819997929894399730-head">
    <rect width="2" height="3" transform="matrix(-1 0 0 1 11 0)" fill="#FFA917"/>
    <rect width="2" height="4" transform="matrix(-1 0 0 1 3 0)" fill="#FFA917"/>
    <rect width="1" height="1" transform="matrix(-1 0 0 1 10 0)" fill="#FFA917"/>
    <rect width="1" height="3" transform="matrix(-1 0 0 1 3 0)" fill="#FFA917"/>
    <rect width="1" height="1" transform="matrix(-1 0 0 1 3 4)" fill="#FFA917"/>
    <rect width="10" height="6" transform="matrix(-1 0 0 1 12 5)" fill="#FFA917"/>
    <rect width="1" height="2" transform="matrix(-1 0 0 1 2 5)" fill="#FFA917"/>
    <rect width="12" height="2" transform="matrix(-1 0 0 1 13 5)" fill="#FFA917"/>
    <rect width="10" height="8" transform="matrix(-1 0 0 1 12 3)" fill="#FFA917"/>
    <rect width="12" height="3" transform="matrix(-1 0 0 1 13 7)" fill="#FFA917"/>
    <rect width="2" height="2" transform="matrix(-1 0 0 1 10 1)" fill="#FFA917"/>
    <rect width="3" height="2" transform="matrix(-1 0 0 1 4 1)" fill="#FFA917"/>
    <rect width="10" height="2" transform="matrix(-1 0 0 1 11 2)" fill="#FFA917"/>
    <rect width="1" height="1" transform="matrix(-1 0 0 1 9 7)" fill="#FEC3CE"/>
    <rect width="2" height="1" transform="matrix(-1 0 0 1 11 8)" fill="#FEFF7D"/>
    <rect width="2" height="1" transform="matrix(-1 0 0 1 8 8)" fill="#FEFF7D"/>
    <rect width="1" height="4" transform="matrix(-1 0 0 1 2 0)" fill="black" fill-opacity="0.1"/>
    <rect width="1" height="1" transform="matrix(-1 0 0 1 3 4)" fill="black" fill-opacity="0.1"/>
    <rect width="1" height="1" transform="matrix(-1 0 0 1 9 3)" fill="black" fill-opacity="0.1"/>
    <rect width="1" height="1" transform="matrix(-1 0 0 1 7 3)" fill="black" fill-opacity="0.1"/>
    <rect width="1" height="1" transform="matrix(-1 0 0 1 9 1)" fill="black" fill-opacity="0.1"/>
    <rect width="1" height="1" transform="matrix(-1 0 0 1 10 0)" fill="black" fill-opacity="0.1"/>
    <rect width="1" height="1" transform="matrix(-1 0 0 1 3 1)" fill="black" fill-opacity="0.1"/>
    <rect width="1" height="2" transform="matrix(-1 0 0 1 2 5)" fill="black" fill-opacity="0.1"/>
    <rect width="1" height="3" transform="matrix(-1 0 0 1 2 7)" fill="black" fill-opacity="0.1"/>
    <rect width="2" height="1" transform="matrix(-1 0 0 1 4 10)" fill="black" fill-opacity="0.1"/>
    <rect width="3" height="1" transform="matrix(-1 0 0 1 9 2)" fill="black" fill-opacity="0.1"/>
    <rect width="1" height="1" transform="matrix(-1 0 0 1 14 7)" fill="#2d2d2d"/>
    <rect width="1" height="1" transform="matrix(-1 0 0 1 14 9)" fill="#2d2d2d"/>
    <rect width="3" height="1" transform="matrix(-1 0 0 1 3 7)" fill="#2d2d2d"/>
    <rect width="3" height="1" transform="matrix(-1 0 0 1 3 9)" fill="#2d2d2d"/>
    <rect width="2.99997" height="4" transform="matrix(-1 0 0 1 12 4)" fill="white"/>
    <rect width="0.272725" height="0.285714" transform="matrix(-1 0 0 1 9.27272 4)" fill="#FFA917"/>
    <rect width="0.272725" height="0.285714" transform="matrix(-1 0 0 1 9.27274 7.71429)"
      fill="#FFA917"/>
    <rect width="0.272725" height="0.285714" transform="matrix(-1 0 0 1 12 7.71429)"
      fill="#FFA917"/>
    <rect width="0.272725" height="0.285714" transform="matrix(-1 0 0 1 12 7.42857)"
      fill="#FFA917"/>
    <rect width="0.272725" height="0.285714" transform="matrix(-1 0 0 1 11.7273 7.71429)"
      fill="#FFA917"/>
    <rect width="0.272725" height="0.285714" transform="matrix(-1 0 0 1 9.54549 7.71429)"
      fill="#FFA917"/>
    <rect width="0.272725" height="0.285714" transform="matrix(-1 0 0 1 9.27274 7.42857)"
      fill="#FFA917"/>
    <rect width="0.272725" height="0.285714" transform="matrix(-1 0 0 1 9.27274 4.28571)"
      fill="#FFA917"/>
    <rect width="0.272725" height="0.285714" transform="matrix(-1 0 0 1 12 4.28571)"
      fill="#FFA917"/>
    <rect width="0.272725" height="0.285714" transform="matrix(-1 0 0 1 12 4.57143)"
      fill="#FFA917"/>
    <rect width="0.272725" height="0.285714" transform="matrix(-1 0 0 1 11.7273 4.28571)"
      fill="#FFA917"/>
    <rect width="0.272725" height="0.285714" transform="matrix(-1 0 0 1 11.4546 4)" fill="#FFA917"/>
    <rect width="0.272725" height="0.285714" transform="matrix(-1 0 0 1 9.54547 4)" fill="#FFA917"/>
    <rect width="0.272725" height="0.285714" transform="matrix(-1 0 0 1 9.81821 4)" fill="#FFA917"/>
    <rect width="0.272725" height="0.285714" transform="matrix(-1 0 0 1 9.54549 4.28571)"
      fill="#FFA917"/>
    <rect width="0.272725" height="0.285714" transform="matrix(-1 0 0 1 9.27274 4.57143)"
      fill="#FFA917"/>
    <rect width="0.272725" height="0.285714" transform="matrix(-1 0 0 1 9.27274 7.14285)"
      fill="#FFA917"/>
    <rect width="0.272725" height="0.285714" transform="matrix(-1 0 0 1 9.54549 7.42857)"
      fill="#FFA917"/>
    <rect width="0.272725" height="0.285714" transform="matrix(-1 0 0 1 9.81821 7.71429)"
      fill="#FFA917"/>
    <rect width="0.272725" height="0.285714" transform="matrix(-1 0 0 1 11.4546 7.71429)"
      fill="#FFA917"/>
    <rect width="0.272725" height="0.285714" transform="matrix(-1 0 0 1 11.7273 7.42857)"
      fill="#FFA917"/>
    <rect width="0.272725" height="0.285714" transform="matrix(-1 0 0 1 12 7.14286)"
      fill="#FFA917"/>
    <rect width="0.272725" height="0.285714" transform="matrix(-1 0 0 1 11.7273 4)" fill="#FFA917"/>
    <rect width="0.272725" height="0.285714" transform="matrix(-1 0 0 1 12 4)" fill="#FFA917"/>
    <rect width="1.36362" height="1.14286" transform="matrix(-1 0 0 1 11.4546 5.42857)"
      fill="black"/>
    <rect width="0.818175" height="0.571428" transform="matrix(-1 0 0 1 11.1818 6.28571)"
      fill="black"/>
    <rect width="3" height="2" transform="matrix(-1 0 0 1 12 4)" fill="#FFA917"/>
    <rect width="0.272727" height="0.285714" transform="matrix(-1 0 0 1 9.27272 4.57143)"
      fill="black" fill-opacity="0.1"/>
    <rect width="0.272727" height="0.285714" transform="matrix(-1 0 0 1 9.54546 4.28571)"
      fill="black" fill-opacity="0.1"/>
    <rect width="1.90909" height="0.285714" transform="matrix(-1 0 0 1 11.4545 4)" fill="black"
      fill-opacity="0.1"/>
    <rect width="0.272727" height="0.285714" transform="matrix(-1 0 0 1 11.7273 4.28571)"
      fill="black" fill-opacity="0.1"/>
    <rect width="0.272727" height="0.285714" transform="matrix(-1 0 0 1 12 4.57143)" fill="black"
      fill-opacity="0.1"/>
    <rect width="2.99997" height="4" transform="matrix(-1 0 0 1 8 4)" fill="white"/>
    <rect width="0.272725" height="0.285714" transform="matrix(-1 0 0 1 5.27272 4)" fill="#FFA917"/>
    <rect width="0.272725" height="0.285714" transform="matrix(-1 0 0 1 5.27274 7.71429)"
      fill="#FFA917"/>
    <rect width="0.272725" height="0.285714" transform="matrix(-1 0 0 1 8 7.71429)" fill="#FFA917"/>
    <rect width="0.272725" height="0.285714" transform="matrix(-1 0 0 1 8 7.42857)" fill="#FFA917"/>
    <rect width="0.272725" height="0.285714" transform="matrix(-1 0 0 1 7.72728 7.71429)"
      fill="#FFA917"/>
    <rect width="0.272725" height="0.285714" transform="matrix(-1 0 0 1 5.54549 7.71429)"
      fill="#FFA917"/>
    <rect width="0.272725" height="0.285714" transform="matrix(-1 0 0 1 5.27274 7.42857)"
      fill="#FFA917"/>
    <rect width="0.272725" height="0.285714" transform="matrix(-1 0 0 1 5.27274 4.28571)"
      fill="#FFA917"/>
    <rect width="0.272725" height="0.285714" transform="matrix(-1 0 0 1 8 4.28571)" fill="#FFA917"/>
    <rect width="0.272725" height="0.285714" transform="matrix(-1 0 0 1 8 4.57143)" fill="#FFA917"/>
    <rect width="0.272725" height="0.285714" transform="matrix(-1 0 0 1 7.72728 4.28571)"
      fill="#FFA917"/>
    <rect width="0.272725" height="0.285714" transform="matrix(-1 0 0 1 7.45456 4)" fill="#FFA917"/>
    <rect width="0.272725" height="0.285714" transform="matrix(-1 0 0 1 5.54547 4)" fill="#FFA917"/>
    <rect width="0.272725" height="0.285714" transform="matrix(-1 0 0 1 5.81821 4)" fill="#FFA917"/>
    <rect width="0.272725" height="0.285714" transform="matrix(-1 0 0 1 5.54549 4.28571)"
      fill="#FFA917"/>
    <rect width="0.272725" height="0.285714" transform="matrix(-1 0 0 1 5.27274 4.57143)"
      fill="#FFA917"/>
    <rect width="0.272725" height="0.285714" transform="matrix(-1 0 0 1 5.27274 7.14285)"
      fill="#FFA917"/>
    <rect width="0.272725" height="0.285714" transform="matrix(-1 0 0 1 5.54549 7.42857)"
      fill="#FFA917"/>
    <rect width="0.272725" height="0.285714" transform="matrix(-1 0 0 1 5.81821 7.71429)"
      fill="#FFA917"/>
    <rect width="0.272725" height="0.285714" transform="matrix(-1 0 0 1 7.45456 7.71429)"
      fill="#FFA917"/>
    <rect width="0.272725" height="0.285714" transform="matrix(-1 0 0 1 7.72728 7.42857)"
      fill="#FFA917"/>
    <rect width="0.272725" height="0.285714" transform="matrix(-1 0 0 1 8 7.14286)" fill="#FFA917"/>
    <rect width="0.272725" height="0.285714" transform="matrix(-1 0 0 1 7.72726 4)" fill="#FFA917"/>
    <rect width="0.272725" height="0.285714" transform="matrix(-1 0 0 1 8 4)" fill="#FFA917"/>
    <rect width="1.36362" height="1.14286" transform="matrix(-1 0 0 1 7.45456 5.42857)"
      fill="black"/>
    <rect width="0.818175" height="0.571428" transform="matrix(-1 0 0 1 7.18181 6.28571)"
      fill="black"/>
    <rect width="3" height="2" transform="matrix(-1 0 0 1 8 4)" fill="#FFA917"/>
    <rect width="0.272727" height="0.285714" transform="matrix(-1 0 0 1 5.27272 4.57143)"
      fill="black" fill-opacity="0.1"/>
    <rect width="0.272727" height="0.285714" transform="matrix(-1 0 0 1 5.54546 4.28571)"
      fill="black" fill-opacity="0.1"/>
    <rect width="1.90909" height="0.285714" transform="matrix(-1 0 0 1 7.45454 4)" fill="black"
      fill-opacity="0.1"/>
    <rect width="0.272727" height="0.285714" transform="matrix(-1 0 0 1 7.72726 4.28571)"
      fill="black" fill-opacity="0.1"/>
    <rect width="0.272727" height="0.285714" transform="matrix(-1 0 0 1 8 4.57143)" fill="black"
      fill-opacity="0.1"/>
    <rect id="cat-819997929894399730-eyelid-left" width="3" height="1" transform="translate(9, 5)"
      fill="#FFA917"/>
    <rect id="cat-819997929894399730-eyelid-right" width="3" height="1" transform="translate(5, 5)"
      fill="#FFA917"/>
  </g>

  <g id="cat-819997929894399730-body" transform="translate(1, 0)">
    <rect width="7" height="9" transform="matrix(-1 0 0 1 9 0)" fill="#FFA917"/>
    <rect width="9" height="6" transform="matrix(-1 0 0 1 10 2)" fill="#FFA917"/>
    <rect width="10" height="3" transform="matrix(-1 0 0 1 10 5)" fill="#FFA917"/>
    <rect width="8" height="5" transform="matrix(-1 0 0 1 9 4)" fill="#FFA917"/>
    <rect width="11" height="3" transform="matrix(-1 0 0 1 11 4)" fill="#FFA917"/>
    <rect width="6" height="9" transform="matrix(-1 0 0 1 8 1)" fill="#FFA917"/>
    <rect width="5" height="5" transform="matrix(-1 0 0 1 8 3)" fill="white"/>
    <rect width="3" height="5" transform="matrix(-1 0 0 1 7 2)" fill="white"/>
    <rect width="3" height="1" transform="matrix(-1 0 0 1 8 9)" fill="black" fill-opacity="0.1"/>
    <rect width="2" height="1" transform="matrix(-1 0 0 1 4 9)" fill="black" fill-opacity="0.1"/>
    <rect x="1" y="8" width="1" height="1" fill="black" fill-opacity="0.1"/>
    <rect y="5" width="1" height="1" fill="black" fill-opacity="0.1"/>
    <rect y="4" width="1" height="1" fill="black" fill-opacity="0.1"/>
    <rect x="10" y="6" width="1" height="1" fill="black" fill-opacity="0.1"/>
    <rect width="1" height="2" transform="matrix(-1 0 0 1 3 0)" fill="black" fill-opacity="0.1"/>
    <rect width="1" height="2" transform="matrix(-1 0 0 1 2 2)" fill="black" fill-opacity="0.1"/>
  </g>

  <g id="cat-819997929894399730-tail" transform="translate(-6, -2)">
    <rect width="2" height="4" transform="matrix(0 1 1 0 6 8)" fill="#FFA917"/>
    <rect width="1" height="3" transform="matrix(0 1 1 0 4 8)" fill="#FFA917"/>
    <rect width="2" height="1" transform="matrix(0 1 1 0 4 7)" fill="#FFA917"/>
    <rect width="1" height="3" transform="matrix(0 1 1 0 2 7)" fill="#FFA917"/>
    <rect width="2" height="1" transform="matrix(0 1 1 0 2 6)" fill="#FFA917"/>
    <rect width="1" height="2" transform="matrix(0 1 1 0 1 6)" fill="#FFA917"/>
    <rect width="3" height="1" transform="matrix(0 1 1 0 1 4)" fill="#FFA917"/>
    <rect width="1" height="2" transform="matrix(0 1 1 0 0 4)" fill="#FFA917"/>
    <rect width="4" height="1" transform="matrix(0 1 1 0 0 1)" fill="#FFA917"/>
    <rect width="1" height="2" transform="matrix(0 1 1 0 0 1)" fill="#FFA917"/>
    <rect width="2" height="1" transform="matrix(0 1 1 0 1 0)" fill="#FFA917"/>
    <rect x="6" y="9" width="2" height="1" fill="black" fill-opacity="0.1"/>
    <rect x="1" width="1" height="2" fill="black" fill-opacity="0.1"/>
    <rect y="1" width="1" height="2" fill="black" fill-opacity="0.1"/>
    <rect x="1" y="4" width="1" height="1" fill="black" fill-opacity="0.1"/>
    <rect x="2" y="6" width="1" height="2" fill="black" fill-opacity="0.1"/>
  </g>
</svg>
</g>
</svg>